<?xml version="1.0" encoding="UTF-8" standalone="no"?>
<!DOCTYPE svg PUBLIC "-//W3C//DTD SVG 1.1//EN"
 "http://www.w3.org/Graphics/SVG/1.1/DTD/svg11.dtd">
<!-- Generated by graphviz version 2.47.0 (20210316.0004)
 -->
<!-- Title: dependencies Pages: 1 -->
<svg width="1991pt" height="284pt"
 viewBox="0.00 0.00 1991.00 284.00" xmlns="http://www.w3.org/2000/svg" xmlns:xlink="http://www.w3.org/1999/xlink">
<g id="graph0" class="graph" transform="scale(1 1) rotate(0) translate(4 280)">
<title>dependencies</title>
<polygon fill="white" stroke="transparent" points="-4,4 -4,-280 1987,-280 1987,4 -4,4"/>
<text text-anchor="start" x="970.51" y="-42.4" font-family="Times-12" font-weight="bold" font-size="14.00">Legend</text>
<polygon fill="#ffffb3" stroke="transparent" points="757.5,-10 757.5,-30 777.5,-30 777.5,-10 757.5,-10"/>
<text text-anchor="start" x="781.13" y="-15.4" font-family="Times-12" font-size="14.00"> &#160;Declarations</text>
<polygon fill="#8dd3c7" stroke="transparent" points="870.5,-10 870.5,-30 890.5,-30 890.5,-10 870.5,-10"/>
<text text-anchor="start" x="894.23" y="-15.4" font-family="Times-12" font-size="14.00"> &#160;Module</text>
<polygon fill="#80b1d3" stroke="transparent" points="956.5,-10 956.5,-30 976.5,-30 976.5,-10 956.5,-10"/>
<text text-anchor="start" x="980.28" y="-15.4" font-family="Times-12" font-size="14.00"> &#160;Bootstrap</text>
<polygon fill="#fdb462" stroke="transparent" points="1053.5,-10 1053.5,-30 1073.5,-30 1073.5,-10 1053.5,-10"/>
<text text-anchor="start" x="1077.17" y="-15.4" font-family="Times-12" font-size="14.00"> &#160;Providers</text>
<polygon fill="#fb8072" stroke="transparent" points="1149.5,-10 1149.5,-30 1169.5,-30 1169.5,-10 1149.5,-10"/>
<text text-anchor="start" x="1173.23" y="-15.4" font-family="Times-12" font-size="14.00"> &#160;Exports</text>
<g id="clust1" class="cluster">
<title>cluster_AppModule</title>
<polygon fill="none" stroke="black" stroke-dasharray="1,5" points="8,-70 8,-268 1975,-268 1975,-70 8,-70"/>
</g>
<g id="clust2" class="cluster">
<title>cluster_AppModule_declarations</title>
<polygon fill="none" stroke="black" points="362,-78 362,-130 1967,-130 1967,-78 362,-78"/>
</g>
<g id="clust14" class="cluster">
<title>cluster_AppModule_imports</title>
<polygon fill="none" stroke="black" points="210,-78 210,-130 354,-130 354,-78 210,-78"/>
</g>
<g id="clust16" class="cluster">
<title>cluster_AppModule_bootstrap</title>
<polygon fill="none" stroke="black" points="979,-208 979,-260 1103,-260 1103,-208 979,-208"/>
</g>
<g id="clust17" class="cluster">
<title>cluster_AppModule_providers</title>
<polygon fill="none" stroke="black" points="16,-78 16,-130 202,-130 202,-78 16,-78"/>
</g>
<!-- AppComponent -->
<g id="node1" class="node">
<title>AppComponent</title>
<polygon fill="#ffffb3" stroke="black" points="1958.94,-122 1853.06,-122 1853.06,-86 1958.94,-86 1958.94,-122"/>
<text text-anchor="middle" x="1906" y="-99.8" font-family="Times,serif" font-size="14.00">AppComponent</text>
</g>
<!-- AppModule -->
<g id="node12" class="node">
<title>AppModule</title>
<polygon fill="#8dd3c7" stroke="black" points="1082.66,-187 1079.66,-191 1058.66,-191 1055.66,-187 999.34,-187 999.34,-151 1082.66,-151 1082.66,-187"/>
<text text-anchor="middle" x="1041" y="-164.8" font-family="Times,serif" font-size="14.00">AppModule</text>
</g>
<!-- AppComponent&#45;&gt;AppModule -->
<g id="edge1" class="edge">
<title>AppComponent&#45;&gt;AppModule</title>
<path fill="none" stroke="black" d="M1906,-122.09C1906,-145.13 1906,-182 1906,-182 1906,-182 1092.72,-182 1092.72,-182"/>
<polygon fill="black" stroke="black" points="1092.72,-178.5 1082.72,-182 1092.72,-185.5 1092.72,-178.5"/>
</g>
<!-- AuthClickDirective -->
<g id="node2" class="node">
<title>AuthClickDirective</title>
<polygon fill="#ffffb3" stroke="black" points="1835.41,-122 1708.59,-122 1708.59,-86 1835.41,-86 1835.41,-122"/>
<text text-anchor="middle" x="1772" y="-99.8" font-family="Times,serif" font-size="14.00">AuthClickDirective</text>
</g>
<!-- AuthClickDirective&#45;&gt;AppModule -->
<g id="edge2" class="edge">
<title>AuthClickDirective&#45;&gt;AppModule</title>
<path fill="none" stroke="black" d="M1772,-122.04C1772,-143.66 1772,-177 1772,-177 1772,-177 1092.66,-177 1092.66,-177"/>
<polygon fill="black" stroke="black" points="1092.66,-173.5 1082.66,-177 1092.66,-180.5 1092.66,-173.5"/>
</g>
<!-- BaseLayoutComponent -->
<g id="node3" class="node">
<title>BaseLayoutComponent</title>
<polygon fill="#ffffb3" stroke="black" points="1691.2,-122 1542.8,-122 1542.8,-86 1691.2,-86 1691.2,-122"/>
<text text-anchor="middle" x="1617" y="-99.8" font-family="Times,serif" font-size="14.00">BaseLayoutComponent</text>
</g>
<!-- BaseLayoutComponent&#45;&gt;AppModule -->
<g id="edge3" class="edge">
<title>BaseLayoutComponent&#45;&gt;AppModule</title>
<path fill="none" stroke="black" d="M1617,-122.22C1617,-142.37 1617,-172 1617,-172 1617,-172 1092.89,-172 1092.89,-172"/>
<polygon fill="black" stroke="black" points="1092.89,-168.5 1082.89,-172 1092.89,-175.5 1092.89,-168.5"/>
</g>
<!-- FeatureComponent -->
<g id="node4" class="node">
<title>FeatureComponent</title>
<polygon fill="#ffffb3" stroke="black" points="1524.81,-122 1401.19,-122 1401.19,-86 1524.81,-86 1524.81,-122"/>
<text text-anchor="middle" x="1463" y="-99.8" font-family="Times,serif" font-size="14.00">FeatureComponent</text>
</g>
<!-- FeatureComponent&#45;&gt;AppModule -->
<g id="edge4" class="edge">
<title>FeatureComponent&#45;&gt;AppModule</title>
<path fill="none" stroke="black" d="M1463,-122.22C1463,-140.83 1463,-167 1463,-167 1463,-167 1093.01,-167 1093.01,-167"/>
<polygon fill="black" stroke="black" points="1093.01,-163.5 1083.01,-167 1093.01,-170.5 1093.01,-163.5"/>
</g>
<!-- LoginComponent -->
<g id="node5" class="node">
<title>LoginComponent</title>
<polygon fill="#ffffb3" stroke="black" points="1383.28,-122 1268.72,-122 1268.72,-86 1383.28,-86 1383.28,-122"/>
<text text-anchor="middle" x="1326" y="-99.8" font-family="Times,serif" font-size="14.00">LoginComponent</text>
</g>
<!-- LoginComponent&#45;&gt;AppModule -->
<g id="edge5" class="edge">
<title>LoginComponent&#45;&gt;AppModule</title>
<path fill="none" stroke="black" d="M1326,-122.03C1326,-139.06 1326,-162 1326,-162 1326,-162 1092.75,-162 1092.75,-162"/>
<polygon fill="black" stroke="black" points="1092.75,-158.5 1082.75,-162 1092.75,-165.5 1092.75,-158.5"/>
</g>
<!-- NavbarComponent -->
<g id="node6" class="node">
<title>NavbarComponent</title>
<polygon fill="#ffffb3" stroke="black" points="1250.03,-122 1127.97,-122 1127.97,-86 1250.03,-86 1250.03,-122"/>
<text text-anchor="middle" x="1189" y="-99.8" font-family="Times,serif" font-size="14.00">NavbarComponent</text>
</g>
<!-- NavbarComponent&#45;&gt;AppModule -->
<g id="edge6" class="edge">
<title>NavbarComponent&#45;&gt;AppModule</title>
<path fill="none" stroke="black" d="M1189,-122.24C1189,-137.57 1189,-157 1189,-157 1189,-157 1093.01,-157 1093.01,-157"/>
<polygon fill="black" stroke="black" points="1093.02,-153.5 1083.01,-157 1093.01,-160.5 1093.02,-153.5"/>
</g>
<!-- ParameterComponent -->
<g id="node7" class="node">
<title>ParameterComponent</title>
<polygon fill="#ffffb3" stroke="black" points="1110.08,-122 971.92,-122 971.92,-86 1110.08,-86 1110.08,-122"/>
<text text-anchor="middle" x="1041" y="-99.8" font-family="Times,serif" font-size="14.00">ParameterComponent</text>
</g>
<!-- ParameterComponent&#45;&gt;AppModule -->
<g id="edge7" class="edge">
<title>ParameterComponent&#45;&gt;AppModule</title>
<path fill="none" stroke="black" d="M1041,-122.11C1041,-122.11 1041,-140.99 1041,-140.99"/>
<polygon fill="black" stroke="black" points="1037.5,-140.99 1041,-150.99 1044.5,-140.99 1037.5,-140.99"/>
</g>
<!-- ProductComponent -->
<g id="node8" class="node">
<title>ProductComponent</title>
<polygon fill="#ffffb3" stroke="black" points="954.38,-122 829.62,-122 829.62,-86 954.38,-86 954.38,-122"/>
<text text-anchor="middle" x="892" y="-99.8" font-family="Times,serif" font-size="14.00">ProductComponent</text>
</g>
<!-- ProductComponent&#45;&gt;AppModule -->
<g id="edge8" class="edge">
<title>ProductComponent&#45;&gt;AppModule</title>
<path fill="none" stroke="black" d="M892,-122.24C892,-137.57 892,-157 892,-157 892,-157 989.1,-157 989.1,-157"/>
<polygon fill="black" stroke="black" points="989.1,-160.5 999.1,-157 989.1,-153.5 989.1,-160.5"/>
</g>
<!-- RegisterComponent -->
<g id="node9" class="node">
<title>RegisterComponent</title>
<polygon fill="#ffffb3" stroke="black" points="811.98,-122 684.02,-122 684.02,-86 811.98,-86 811.98,-122"/>
<text text-anchor="middle" x="748" y="-99.8" font-family="Times,serif" font-size="14.00">RegisterComponent</text>
</g>
<!-- RegisterComponent&#45;&gt;AppModule -->
<g id="edge9" class="edge">
<title>RegisterComponent&#45;&gt;AppModule</title>
<path fill="none" stroke="black" d="M748,-122.03C748,-139.06 748,-162 748,-162 748,-162 989.33,-162 989.33,-162"/>
<polygon fill="black" stroke="black" points="989.33,-165.5 999.33,-162 989.33,-158.5 989.33,-165.5"/>
</g>
<!-- SiteLayoutComponent -->
<g id="node10" class="node">
<title>SiteLayoutComponent</title>
<polygon fill="#ffffb3" stroke="black" points="666.27,-122 523.73,-122 523.73,-86 666.27,-86 666.27,-122"/>
<text text-anchor="middle" x="595" y="-99.8" font-family="Times,serif" font-size="14.00">SiteLayoutComponent</text>
</g>
<!-- SiteLayoutComponent&#45;&gt;AppModule -->
<g id="edge10" class="edge">
<title>SiteLayoutComponent&#45;&gt;AppModule</title>
<path fill="none" stroke="black" d="M595,-122.22C595,-140.83 595,-167 595,-167 595,-167 989.04,-167 989.04,-167"/>
<polygon fill="black" stroke="black" points="989.04,-170.5 999.04,-167 989.04,-163.5 989.04,-170.5"/>
</g>
<!-- SummaryComponent -->
<g id="node11" class="node">
<title>SummaryComponent</title>
<polygon fill="#ffffb3" stroke="black" points="505.77,-122 370.23,-122 370.23,-86 505.77,-86 505.77,-122"/>
<text text-anchor="middle" x="438" y="-99.8" font-family="Times,serif" font-size="14.00">SummaryComponent</text>
</g>
<!-- SummaryComponent&#45;&gt;AppModule -->
<g id="edge11" class="edge">
<title>SummaryComponent&#45;&gt;AppModule</title>
<path fill="none" stroke="black" d="M438,-122.22C438,-142.37 438,-172 438,-172 438,-172 989.08,-172 989.08,-172"/>
<polygon fill="black" stroke="black" points="989.08,-175.5 999.08,-172 989.08,-168.5 989.08,-175.5"/>
</g>
<!-- AppComponent  -->
<g id="node14" class="node">
<title>AppComponent </title>
<polygon fill="#80b1d3" stroke="black" points="1095.44,-252 986.56,-252 986.56,-216 1095.44,-216 1095.44,-252"/>
<text text-anchor="middle" x="1041" y="-229.8" font-family="Times,serif" font-size="14.00">AppComponent </text>
</g>
<!-- AppModule&#45;&gt;AppComponent  -->
<g id="edge13" class="edge">
<title>AppModule&#45;&gt;AppComponent </title>
<path fill="none" stroke="black" stroke-dasharray="1,5" d="M1041,-187.11C1041,-187.11 1041,-205.99 1041,-205.99"/>
<polygon fill="black" stroke="black" points="1037.5,-205.99 1041,-215.99 1044.5,-205.99 1037.5,-205.99"/>
</g>
<!-- AppRoutingModule -->
<g id="node13" class="node">
<title>AppRoutingModule</title>
<polygon fill="#8dd3c7" stroke="black" points="346.27,-122 343.27,-126 322.27,-126 319.27,-122 217.73,-122 217.73,-86 346.27,-86 346.27,-122"/>
<text text-anchor="middle" x="282" y="-99.8" font-family="Times,serif" font-size="14.00">AppRoutingModule</text>
</g>
<!-- AppRoutingModule&#45;&gt;AppModule -->
<g id="edge12" class="edge">
<title>AppRoutingModule&#45;&gt;AppModule</title>
<path fill="none" stroke="black" d="M282,-122.04C282,-143.66 282,-177 282,-177 282,-177 989.11,-177 989.11,-177"/>
<polygon fill="black" stroke="black" points="989.11,-180.5 999.11,-177 989.11,-173.5 989.11,-180.5"/>
</g>
<!-- RequestInterceptor -->
<g id="node15" class="node">
<title>RequestInterceptor</title>
<ellipse fill="#fdb462" stroke="black" cx="109" cy="-104" rx="84.51" ry="18"/>
<text text-anchor="middle" x="109" y="-99.8" font-family="Times,serif" font-size="14.00">RequestInterceptor</text>
</g>
<!-- RequestInterceptor&#45;&gt;AppModule -->
<g id="edge14" class="edge">
<title>RequestInterceptor&#45;&gt;AppModule</title>
<path fill="none" stroke="black" d="M109,-122.09C109,-145.13 109,-182 109,-182 109,-182 989.14,-182 989.14,-182"/>
<polygon fill="black" stroke="black" points="989.14,-185.5 999.14,-182 989.14,-178.5 989.14,-185.5"/>
</g>
</g>
</svg>
