<?xml version="1.0" encoding="UTF-8" standalone="no"?>
<!DOCTYPE svg PUBLIC "-//W3C//DTD SVG 1.1//EN"
 "http://www.w3.org/Graphics/SVG/1.1/DTD/svg11.dtd">
<!-- Generated by graphviz version 2.47.0 (20210316.0004)
 -->
<!-- Title: dependencies Pages: 1 -->
<svg width="1991pt" height="284pt"
 viewBox="0.00 0.00 1991.00 284.00" xmlns="http://www.w3.org/2000/svg" xmlns:xlink="http://www.w3.org/1999/xlink">
<g id="graph0" class="graph" transform="scale(1 1) rotate(0) translate(4 280)">
<title>dependencies</title>
<polygon fill="white" stroke="transparent" points="-4,4 -4,-280 1987,-280 1987,4 -4,4"/>
<text text-anchor="start" x="970.51" y="-42.4" font-family="Times-12" font-weight="bold" font-size="14.00">Legend</text>
<polygon fill="#ffffb3" stroke="transparent" points="757.5,-10 757.5,-30 777.5,-30 777.5,-10 757.5,-10"/>
<text text-anchor="start" x="781.13" y="-15.4" font-family="Times-12" font-size="14.00"> &#160;Declarations</text>
<polygon fill="#8dd3c7" stroke="transparent" points="870.5,-10 870.5,-30 890.5,-30 890.5,-10 870.5,-10"/>
<text text-anchor="start" x="894.23" y="-15.4" font-family="Times-12" font-size="14.00"> &#160;Module</text>
<polygon fill="#80b1d3" stroke="transparent" points="956.5,-10 956.5,-30 976.5,-30 976.5,-10 956.5,-10"/>
<text text-anchor="start" x="980.28" y="-15.4" font-family="Times-12" font-size="14.00"> &#160;Bootstrap</text>
<polygon fill="#fdb462" stroke="transparent" points="1053.5,-10 1053.5,-30 1073.5,-30 1073.5,-10 1053.5,-10"/>
<text text-anchor="start" x="1077.17" y="-15.4" font-family="Times-12" font-size="14.00"> &#160;Providers</text>
<polygon fill="#fb8072" stroke="transparent" points="1149.5,-10 1149.5,-30 1169.5,-30 1169.5,-10 1149.5,-10"/>
<text text-anchor="start" x="1173.23" y="-15.4" font-family="Times-12" font-size="14.00"> &#160;Exports</text>
<g id="clust1" class="cluster">
<title>cluster_AppModule</title>
<polygon fill="none" stroke="black" stroke-dasharray="1,5" points="8,-70 8,-268 1975,-268 1975,-70 8,-70"/>
</g>
<g id="clust16" class="cluster">
<title>cluster_AppModule_bootstrap</title>
<polygon fill="none" stroke="black" points="918,-208 918,-260 1042,-260 1042,-208 918,-208"/>
</g>
<g id="clust14" class="cluster">
<title>cluster_AppModule_imports</title>
<polygon fill="none" stroke="black" points="1823,-78 1823,-130 1967,-130 1967,-78 1823,-78"/>
</g>
<g id="clust17" class="cluster">
<title>cluster_AppModule_providers</title>
<polygon fill="none" stroke="black" points="1629,-78 1629,-130 1815,-130 1815,-78 1629,-78"/>
</g>
<g id="clust2" class="cluster">
<title>cluster_AppModule_declarations</title>
<polygon fill="none" stroke="black" points="16,-78 16,-130 1621,-130 1621,-78 16,-78"/>
</g>
<!-- AppComponent -->
<g id="node1" class="node">
<title>AppComponent</title>
<polygon fill="#ffffb3" stroke="black" points="1612.94,-122 1507.06,-122 1507.06,-86 1612.94,-86 1612.94,-122"/>
<text text-anchor="middle" x="1560" y="-99.8" font-family="Times,serif" font-size="14.00">AppComponent</text>
</g>
<!-- AppModule -->
<g id="node12" class="node">
<title>AppModule</title>
<polygon fill="#8dd3c7" stroke="black" points="1021.66,-187 1018.66,-191 997.66,-191 994.66,-187 938.34,-187 938.34,-151 1021.66,-151 1021.66,-187"/>
<text text-anchor="middle" x="980" y="-164.8" font-family="Times,serif" font-size="14.00">AppModule</text>
</g>
<!-- AppComponent&#45;&gt;AppModule -->
<g id="edge1" class="edge">
<title>AppComponent&#45;&gt;AppModule</title>
<path fill="none" stroke="black" d="M1560,-122.22C1560,-142.37 1560,-172 1560,-172 1560,-172 1031.71,-172 1031.71,-172"/>
<polygon fill="black" stroke="black" points="1031.71,-168.5 1021.71,-172 1031.71,-175.5 1031.71,-168.5"/>
</g>
<!-- AuthClickDirective -->
<g id="node2" class="node">
<title>AuthClickDirective</title>
<polygon fill="#ffffb3" stroke="black" points="1489.41,-122 1362.59,-122 1362.59,-86 1489.41,-86 1489.41,-122"/>
<text text-anchor="middle" x="1426" y="-99.8" font-family="Times,serif" font-size="14.00">AuthClickDirective</text>
</g>
<!-- AuthClickDirective&#45;&gt;AppModule -->
<g id="edge2" class="edge">
<title>AuthClickDirective&#45;&gt;AppModule</title>
<path fill="none" stroke="black" d="M1426,-122.22C1426,-140.83 1426,-167 1426,-167 1426,-167 1031.96,-167 1031.96,-167"/>
<polygon fill="black" stroke="black" points="1031.96,-163.5 1021.96,-167 1031.96,-170.5 1031.96,-163.5"/>
</g>
<!-- BaseLayoutComponent -->
<g id="node3" class="node">
<title>BaseLayoutComponent</title>
<polygon fill="#ffffb3" stroke="black" points="1345.2,-122 1196.8,-122 1196.8,-86 1345.2,-86 1345.2,-122"/>
<text text-anchor="middle" x="1271" y="-99.8" font-family="Times,serif" font-size="14.00">BaseLayoutComponent</text>
</g>
<!-- BaseLayoutComponent&#45;&gt;AppModule -->
<g id="edge3" class="edge">
<title>BaseLayoutComponent&#45;&gt;AppModule</title>
<path fill="none" stroke="black" d="M1271,-122.03C1271,-139.06 1271,-162 1271,-162 1271,-162 1031.69,-162 1031.69,-162"/>
<polygon fill="black" stroke="black" points="1031.69,-158.5 1021.69,-162 1031.69,-165.5 1031.69,-158.5"/>
</g>
<!-- FeatureComponent -->
<g id="node4" class="node">
<title>FeatureComponent</title>
<polygon fill="#ffffb3" stroke="black" points="1178.81,-122 1055.19,-122 1055.19,-86 1178.81,-86 1178.81,-122"/>
<text text-anchor="middle" x="1117" y="-99.8" font-family="Times,serif" font-size="14.00">FeatureComponent</text>
</g>
<!-- FeatureComponent&#45;&gt;AppModule -->
<g id="edge4" class="edge">
<title>FeatureComponent&#45;&gt;AppModule</title>
<path fill="none" stroke="black" d="M1117,-122.24C1117,-137.57 1117,-157 1117,-157 1117,-157 1031.85,-157 1031.85,-157"/>
<polygon fill="black" stroke="black" points="1031.85,-153.5 1021.85,-157 1031.85,-160.5 1031.85,-153.5"/>
</g>
<!-- LoginComponent -->
<g id="node5" class="node">
<title>LoginComponent</title>
<polygon fill="#ffffb3" stroke="black" points="1037.28,-122 922.72,-122 922.72,-86 1037.28,-86 1037.28,-122"/>
<text text-anchor="middle" x="980" y="-99.8" font-family="Times,serif" font-size="14.00">LoginComponent</text>
</g>
<!-- LoginComponent&#45;&gt;AppModule -->
<g id="edge5" class="edge">
<title>LoginComponent&#45;&gt;AppModule</title>
<path fill="none" stroke="black" d="M980,-122.11C980,-122.11 980,-140.99 980,-140.99"/>
<polygon fill="black" stroke="black" points="976.5,-140.99 980,-150.99 983.5,-140.99 976.5,-140.99"/>
</g>
<!-- NavbarComponent -->
<g id="node6" class="node">
<title>NavbarComponent</title>
<polygon fill="#ffffb3" stroke="black" points="904.03,-122 781.97,-122 781.97,-86 904.03,-86 904.03,-122"/>
<text text-anchor="middle" x="843" y="-99.8" font-family="Times,serif" font-size="14.00">NavbarComponent</text>
</g>
<!-- NavbarComponent&#45;&gt;AppModule -->
<g id="edge6" class="edge">
<title>NavbarComponent&#45;&gt;AppModule</title>
<path fill="none" stroke="black" d="M843,-122.24C843,-137.57 843,-157 843,-157 843,-157 928.15,-157 928.15,-157"/>
<polygon fill="black" stroke="black" points="928.15,-160.5 938.15,-157 928.15,-153.5 928.15,-160.5"/>
</g>
<!-- ParameterComponent -->
<g id="node7" class="node">
<title>ParameterComponent</title>
<polygon fill="#ffffb3" stroke="black" points="764.08,-122 625.92,-122 625.92,-86 764.08,-86 764.08,-122"/>
<text text-anchor="middle" x="695" y="-99.8" font-family="Times,serif" font-size="14.00">ParameterComponent</text>
</g>
<!-- ParameterComponent&#45;&gt;AppModule -->
<g id="edge7" class="edge">
<title>ParameterComponent&#45;&gt;AppModule</title>
<path fill="none" stroke="black" d="M695,-122.03C695,-139.06 695,-162 695,-162 695,-162 928.25,-162 928.25,-162"/>
<polygon fill="black" stroke="black" points="928.25,-165.5 938.25,-162 928.25,-158.5 928.25,-165.5"/>
</g>
<!-- ProductComponent -->
<g id="node8" class="node">
<title>ProductComponent</title>
<polygon fill="#ffffb3" stroke="black" points="608.38,-122 483.62,-122 483.62,-86 608.38,-86 608.38,-122"/>
<text text-anchor="middle" x="546" y="-99.8" font-family="Times,serif" font-size="14.00">ProductComponent</text>
</g>
<!-- ProductComponent&#45;&gt;AppModule -->
<g id="edge8" class="edge">
<title>ProductComponent&#45;&gt;AppModule</title>
<path fill="none" stroke="black" d="M546,-122.22C546,-140.83 546,-167 546,-167 546,-167 927.99,-167 927.99,-167"/>
<polygon fill="black" stroke="black" points="927.99,-170.5 937.99,-167 927.99,-163.5 927.99,-170.5"/>
</g>
<!-- RegisterComponent -->
<g id="node9" class="node">
<title>RegisterComponent</title>
<polygon fill="#ffffb3" stroke="black" points="465.98,-122 338.02,-122 338.02,-86 465.98,-86 465.98,-122"/>
<text text-anchor="middle" x="402" y="-99.8" font-family="Times,serif" font-size="14.00">RegisterComponent</text>
</g>
<!-- RegisterComponent&#45;&gt;AppModule -->
<g id="edge9" class="edge">
<title>RegisterComponent&#45;&gt;AppModule</title>
<path fill="none" stroke="black" d="M402,-122.22C402,-142.37 402,-172 402,-172 402,-172 927.97,-172 927.97,-172"/>
<polygon fill="black" stroke="black" points="927.97,-175.5 937.97,-172 927.97,-168.5 927.97,-175.5"/>
</g>
<!-- SiteLayoutComponent -->
<g id="node10" class="node">
<title>SiteLayoutComponent</title>
<polygon fill="#ffffb3" stroke="black" points="320.27,-122 177.73,-122 177.73,-86 320.27,-86 320.27,-122"/>
<text text-anchor="middle" x="249" y="-99.8" font-family="Times,serif" font-size="14.00">SiteLayoutComponent</text>
</g>
<!-- SiteLayoutComponent&#45;&gt;AppModule -->
<g id="edge10" class="edge">
<title>SiteLayoutComponent&#45;&gt;AppModule</title>
<path fill="none" stroke="black" d="M249,-122.04C249,-143.66 249,-177 249,-177 249,-177 928.34,-177 928.34,-177"/>
<polygon fill="black" stroke="black" points="928.34,-180.5 938.34,-177 928.34,-173.5 928.34,-180.5"/>
</g>
<!-- SummaryComponent -->
<g id="node11" class="node">
<title>SummaryComponent</title>
<polygon fill="#ffffb3" stroke="black" points="159.77,-122 24.23,-122 24.23,-86 159.77,-86 159.77,-122"/>
<text text-anchor="middle" x="92" y="-99.8" font-family="Times,serif" font-size="14.00">SummaryComponent</text>
</g>
<!-- SummaryComponent&#45;&gt;AppModule -->
<g id="edge11" class="edge">
<title>SummaryComponent&#45;&gt;AppModule</title>
<path fill="none" stroke="black" d="M92,-122.09C92,-145.13 92,-182 92,-182 92,-182 928.06,-182 928.06,-182"/>
<polygon fill="black" stroke="black" points="928.06,-185.5 938.06,-182 928.06,-178.5 928.06,-185.5"/>
</g>
<!-- AppComponent  -->
<g id="node14" class="node">
<title>AppComponent </title>
<polygon fill="#80b1d3" stroke="black" points="1034.44,-252 925.56,-252 925.56,-216 1034.44,-216 1034.44,-252"/>
<text text-anchor="middle" x="980" y="-229.8" font-family="Times,serif" font-size="14.00">AppComponent </text>
</g>
<!-- AppModule&#45;&gt;AppComponent  -->
<g id="edge13" class="edge">
<title>AppModule&#45;&gt;AppComponent </title>
<path fill="none" stroke="black" stroke-dasharray="1,5" d="M980,-187.11C980,-187.11 980,-205.99 980,-205.99"/>
<polygon fill="black" stroke="black" points="976.5,-205.99 980,-215.99 983.5,-205.99 976.5,-205.99"/>
</g>
<!-- AppRoutingModule -->
<g id="node13" class="node">
<title>AppRoutingModule</title>
<polygon fill="#8dd3c7" stroke="black" points="1959.27,-122 1956.27,-126 1935.27,-126 1932.27,-122 1830.73,-122 1830.73,-86 1959.27,-86 1959.27,-122"/>
<text text-anchor="middle" x="1895" y="-99.8" font-family="Times,serif" font-size="14.00">AppRoutingModule</text>
</g>
<!-- AppRoutingModule&#45;&gt;AppModule -->
<g id="edge12" class="edge">
<title>AppRoutingModule&#45;&gt;AppModule</title>
<path fill="none" stroke="black" d="M1895,-122.09C1895,-145.13 1895,-182 1895,-182 1895,-182 1031.69,-182 1031.69,-182"/>
<polygon fill="black" stroke="black" points="1031.69,-178.5 1021.69,-182 1031.69,-185.5 1031.69,-178.5"/>
</g>
<!-- RequestInterceptor -->
<g id="node15" class="node">
<title>RequestInterceptor</title>
<ellipse fill="#fdb462" stroke="black" cx="1722" cy="-104" rx="84.51" ry="18"/>
<text text-anchor="middle" x="1722" y="-99.8" font-family="Times,serif" font-size="14.00">RequestInterceptor</text>
</g>
<!-- RequestInterceptor&#45;&gt;AppModule -->
<g id="edge14" class="edge">
<title>RequestInterceptor&#45;&gt;AppModule</title>
<path fill="none" stroke="black" d="M1722,-122.04C1722,-143.66 1722,-177 1722,-177 1722,-177 1031.75,-177 1031.75,-177"/>
<polygon fill="black" stroke="black" points="1031.75,-173.5 1021.75,-177 1031.75,-180.5 1031.75,-173.5"/>
</g>
</g>
</svg>
